<svg xmlns="http://www.w3.org/2000/svg" width="80.004" height="80.004" viewBox="0 0 80.004 80.004">
  <title>liberapay</title>
  <g>
    <path d="M50.4,33.03a15.556,15.556,0,0,0-3.267.327L43.319,49.2a10.177,10.177,0,0,0,2.286.218,9.241,9.241,0,0,0,3.864-.79,8.511,8.511,0,0,0,2.967-2.2,10.176,10.176,0,0,0,1.9-3.4,13.434,13.434,0,0,0,.68-4.381,7.294,7.294,0,0,0-1.033-3.974A3.918,3.918,0,0,0,50.4,33.03Z" fill="#fff"/>
    <path d="M72.269,0H7.735A7.737,7.737,0,0,0,0,7.735V72.269A7.737,7.737,0,0,0,7.735,80H72.269A7.735,7.735,0,0,0,80,72.269V7.735A7.734,7.734,0,0,0,72.269,0ZM23.378,52.291a7.974,7.974,0,0,1-.926-4,22.32,22.32,0,0,1,.626-4.817l6.913-28.9,8.437-1.306L30.862,44.618a9.941,9.941,0,0,0-.245,1.8,2.861,2.861,0,0,0,.3,1.442,2.343,2.343,0,0,0,1.116,1.006,6.265,6.265,0,0,0,2.205.491L32.6,56.044v0a14.907,14.907,0,0,1-6.069-1.007A6.5,6.5,0,0,1,23.378,52.291Zm39.7-14.253v0A19.549,19.549,0,0,1,61.771,45.3a17.225,17.225,0,0,1-3.619,5.688A16.153,16.153,0,0,1,52.6,54.716a18.334,18.334,0,0,1-7.048,1.334,21.241,21.241,0,0,1-3.7-.327L39.4,65.575H31.345L40.38,27.913a47.792,47.792,0,0,1,4.98-1.171,33.576,33.576,0,0,1,6.07-.516,13.517,13.517,0,0,1,5.252.925,9.767,9.767,0,0,1,3.62,2.531A10.31,10.31,0,0,1,62.4,33.437a15.17,15.17,0,0,1,.68,4.6v0Z" fill="#fff"/>
  </g>
</svg>
